<svg width="926" height="305" viewBox="0 0 926 305" fill="none" xmlns="http://www.w3.org/2000/svg">
<rect x="0.269531" y="0.382812" width="925.458" height="304.238" fill="#3B3B3B"/>
<path d="M157.36 92.1776C157.908 91.9413 158.27 91.4003 158.262 90.7949C158.17 83.6853 156.593 76.1664 152.563 70.4105C148.515 64.6277 142.021 60.6719 132.229 60.6719C123.074 60.6719 116.535 64.6337 112.271 70.3989C108.02 76.1459 106.044 83.6614 105.928 90.7905C105.919 91.3996 106.284 91.9422 106.834 92.1771L131.638 102.762C132.016 102.923 132.444 102.923 132.821 102.76L157.36 92.1776ZM130.801 113.089L77.3535 90.3328C75.0449 89.3499 72.4824 91.044 72.4824 93.5531V165.597C72.4824 166.984 73.3008 168.239 74.5691 168.799L120.751 189.184C123.89 190.57 127.225 191.341 130.582 191.496C131.267 191.528 131.952 191.534 132.637 191.515C136.108 191.416 139.565 190.66 142.817 189.247L189.873 168.795C191.151 168.24 191.978 166.979 191.978 165.585V93.5259C191.978 91.0251 189.431 89.3312 187.125 90.298L175.859 95.021C175.589 95.134 175.418 95.4026 175.43 95.6946L176.372 119.138L169.659 117.376C169.412 117.311 169.149 117.387 168.973 117.572L161.837 125.122L160.498 102.471C160.47 101.989 159.974 101.68 159.529 101.867L132.747 113.094C132.125 113.355 131.423 113.353 130.801 113.089Z" fill="#F98A30" stroke="#F98A30"/>
<rect x="46.3066" y="41.0586" width="172.267" height="172.56" stroke="#F7F7F7" stroke-width="7"/>
<rect x="244.506" y="41.0586" width="637.1" height="172.56" fill="#F7F7F7" stroke="#F7F7F7" stroke-width="7"/>
<path d="M285.67 163.336V93.1399H318.588C324.111 93.1399 328.616 94.1936 332.104 96.3009C335.665 98.4083 338.317 101.279 340.061 104.912C341.805 108.545 342.677 112.687 342.677 117.338C342.677 122.061 341.66 126.24 339.625 129.873C337.663 133.506 334.829 136.34 331.123 138.375C327.49 140.337 323.166 141.318 318.152 141.318H300.385V163.336H285.67ZM300.385 129.655H315.1C319.315 129.655 322.476 128.565 324.583 126.385C326.763 124.132 327.853 121.117 327.853 117.338C327.853 113.269 326.836 110.18 324.801 108.073C322.766 105.893 319.714 104.803 315.645 104.803H300.385V129.655ZM354.085 163.336V93.1399H387.766C395.832 93.1399 401.754 95.2836 405.533 99.5709C409.311 103.786 411.201 109.49 411.201 116.684C411.201 121.407 409.965 125.477 407.495 128.892C405.097 132.307 401.681 134.778 397.249 136.304C398.411 137.249 399.32 138.266 399.974 139.356C400.7 140.446 401.427 141.899 402.154 143.716L410.656 163.336H395.396L387.112 144.479C386.385 142.88 385.586 141.754 384.714 141.1C383.842 140.446 382.388 140.119 380.354 140.119H368.8V163.336H354.085ZM368.8 127.911H383.951C387.802 127.911 390.818 127.075 392.998 125.404C395.178 123.66 396.268 120.753 396.268 116.684C396.268 112.76 395.323 109.89 393.434 108.073C391.544 106.256 388.674 105.348 384.823 105.348H368.8V127.911ZM417.658 163.336L444.472 93.1399H460.604L487.309 163.336H472.049L465.4 146.441H439.567L433.027 163.336H417.658ZM441.747 135.105H463.22L452.429 106.874L441.747 135.105ZM528.642 164.426C516.87 164.426 507.932 161.338 501.828 155.161C495.724 148.984 492.672 140.41 492.672 129.437C492.672 117.81 495.76 108.691 501.937 102.078C508.114 95.3926 517.306 92.0499 529.514 92.0499C533.729 92.0499 537.544 92.3043 540.959 92.8129C544.374 93.2489 547.608 93.9756 550.66 94.9929V107.637C547.608 106.547 544.374 105.784 540.959 105.348C537.616 104.839 534.165 104.585 530.604 104.585C522.247 104.585 516.325 106.656 512.837 110.798C509.349 114.867 507.605 121.08 507.605 129.437C507.605 144.479 514.69 152 528.86 152C531.331 152 533.729 151.818 536.054 151.455C538.452 151.019 540.559 150.474 542.376 149.82V133.47H526.026V124.096H554.802V158.431C552.404 159.957 549.061 161.338 544.774 162.573C540.487 163.808 535.109 164.426 528.642 164.426ZM568.27 163.336V93.1399H583.094L603.695 135.323L624.296 93.1399H639.011V163.336H624.296V117.665L607.946 151.237H599.444L582.985 117.665V163.336H568.27ZM652.493 163.336L679.307 93.1399H695.439L722.144 163.336H706.884L700.235 146.441H674.402L667.862 163.336H652.493ZM676.582 135.105H698.055L687.264 106.874L676.582 135.105ZM743.61 163.336V104.476H722.028V93.1399H779.798V104.476H758.325V163.336H743.61ZM791.183 163.336V93.1399H841.541V104.585H805.898V122.57H837.508V133.906H805.898V152H841.541V163.336H791.183Z" fill="#3B3B3B"/>
<path d="M320.711 255.337V265.915H324.71C326.544 265.915 327.935 265.442 328.881 264.496C329.827 263.521 330.3 262.231 330.3 260.626C330.3 257.1 328.365 255.337 324.495 255.337H320.711ZM331.332 280.621L324.538 269.613H320.711V280.621H316.282V251.639H324.366C327.691 251.639 330.257 252.456 332.063 254.09C333.869 255.695 334.772 257.888 334.772 260.669C334.743 262.704 334.227 264.439 333.224 265.872C332.22 267.277 330.83 268.294 329.053 268.925L336.621 280.621H331.332ZM357.534 268.151V267.377C357.477 265.743 357.032 264.453 356.201 263.507C355.37 262.532 354.18 262.045 352.632 262.045C351.199 262.045 349.966 262.575 348.934 263.636C347.902 264.668 347.257 266.173 346.999 268.151H357.534ZM360.243 275.676V279.46C358.638 280.377 356.516 280.836 353.879 280.836C350.496 280.836 347.802 279.818 345.795 277.783C343.788 275.748 342.785 273.082 342.785 269.785C342.785 266.288 343.702 263.55 345.537 261.572C347.372 259.565 349.708 258.562 352.546 258.562C355.327 258.562 357.534 259.436 359.168 261.185C360.802 262.905 361.619 265.399 361.619 268.667C361.619 269.556 361.533 270.487 361.361 271.462H347.042C347.329 273.354 348.131 274.802 349.45 275.805C350.769 276.808 352.431 277.31 354.438 277.31C356.76 277.31 358.695 276.765 360.243 275.676ZM381.502 270.903H378.234C376.628 270.903 375.41 271.218 374.579 271.849C373.776 272.48 373.375 273.282 373.375 274.257C373.375 275.26 373.69 276.049 374.321 276.622C374.951 277.195 375.869 277.482 377.073 277.482C378.449 277.482 379.524 277.109 380.298 276.364C381.1 275.59 381.502 274.587 381.502 273.354V270.903ZM370.537 264.023V259.938C372.228 258.963 374.464 258.476 377.245 258.476C382.949 258.476 385.802 261.242 385.802 266.775V280.621H381.631V278.041C380.513 279.876 378.549 280.793 375.74 280.793C373.676 280.793 372.013 280.205 370.752 279.03C369.519 277.826 368.903 276.307 368.903 274.472C368.903 272.379 369.691 270.76 371.268 269.613C372.844 268.438 375.052 267.85 377.89 267.85H381.502V266.603C381.502 265.112 381.143 263.994 380.427 263.249C379.71 262.475 378.52 262.088 376.858 262.088C374.536 262.088 372.429 262.733 370.537 264.023ZM395.091 280.621V250.22H399.348V280.621H395.091ZM414.36 262.088V274.085C414.36 276.178 415.363 277.224 417.37 277.224C418.545 277.224 419.534 276.909 420.337 276.278V280.062C419.391 280.578 418.23 280.836 416.854 280.836C412.353 280.836 410.103 278.557 410.103 273.999V262.088H406.706V258.82H410.103V253.488H414.36V258.82H420.079V262.088H414.36ZM428.594 280.621V258.82H432.851V280.621H428.594ZM428.809 254.047C428.322 253.531 428.078 252.9 428.078 252.155C428.078 251.41 428.322 250.779 428.809 250.263C429.325 249.747 429.956 249.489 430.701 249.489C431.446 249.489 432.077 249.747 432.593 250.263C433.109 250.779 433.367 251.41 433.367 252.155C433.367 252.872 433.109 253.488 432.593 254.004C432.077 254.52 431.446 254.778 430.701 254.778C429.956 254.778 429.325 254.534 428.809 254.047ZM446.616 258.82V262.303C447.849 259.78 449.898 258.519 452.765 258.519C456.033 258.519 458.126 259.924 459.043 262.733C459.645 261.386 460.519 260.354 461.666 259.637C462.813 258.892 464.103 258.519 465.536 258.519C467.772 258.519 469.463 259.178 470.61 260.497C471.785 261.816 472.373 263.636 472.373 265.958V280.621H468.159V266.861C468.159 263.736 466.898 262.174 464.375 262.174C463.114 262.174 461.981 262.733 460.978 263.851C460.003 264.969 459.516 266.617 459.516 268.796V280.621H455.302V266.861C455.302 263.736 454.026 262.174 451.475 262.174C450.242 262.174 449.124 262.733 448.121 263.851C447.118 264.969 446.616 266.617 446.616 268.796V280.621H442.402V258.82H446.616ZM495.08 268.151V267.377C495.023 265.743 494.579 264.453 493.747 263.507C492.916 262.532 491.726 262.045 490.178 262.045C488.745 262.045 487.512 262.575 486.48 263.636C485.448 264.668 484.803 266.173 484.545 268.151H495.08ZM497.789 275.676V279.46C496.184 280.377 494.063 280.836 491.425 280.836C488.043 280.836 485.348 279.818 483.341 277.783C481.335 275.748 480.331 273.082 480.331 269.785C480.331 266.288 481.249 263.55 483.083 261.572C484.918 259.565 487.254 258.562 490.092 258.562C492.873 258.562 495.08 259.436 496.714 261.185C498.348 262.905 499.165 265.399 499.165 268.667C499.165 269.556 499.079 270.487 498.907 271.462H484.588C484.875 273.354 485.678 274.802 486.996 275.805C488.315 276.808 489.978 277.31 491.984 277.31C494.306 277.31 496.241 276.765 497.789 275.676Z" fill="white"/>
<path d="M538.012 252.8V257.186C536.092 255.982 533.913 255.38 531.476 255.38C529.9 255.38 528.653 255.738 527.735 256.455C526.847 257.143 526.402 258.06 526.402 259.207C526.402 260.354 526.847 261.271 527.735 261.959C528.624 262.647 529.986 263.392 531.82 264.195C533.024 264.711 533.956 265.155 534.615 265.528C535.303 265.901 536.077 266.431 536.937 267.119C537.826 267.778 538.471 268.581 538.872 269.527C539.302 270.444 539.517 271.505 539.517 272.709C539.517 275.26 538.614 277.267 536.808 278.729C535.002 280.191 532.666 280.922 529.799 280.922C526.617 280.922 523.98 280.306 521.887 279.073V274.472C524.152 276.163 526.775 277.009 529.756 277.009C531.333 277.009 532.58 276.651 533.497 275.934C534.415 275.189 534.873 274.171 534.873 272.881C534.873 272.107 534.601 271.405 534.056 270.774C533.512 270.115 532.924 269.627 532.293 269.312C531.663 268.968 530.717 268.509 529.455 267.936C528.71 267.592 528.18 267.348 527.864 267.205C527.578 267.062 527.09 266.804 526.402 266.431C525.714 266.058 525.198 265.743 524.854 265.485C524.539 265.227 524.138 264.869 523.65 264.41C523.163 263.951 522.805 263.493 522.575 263.034C522.375 262.575 522.174 262.045 521.973 261.443C521.801 260.812 521.715 260.139 521.715 259.422C521.715 256.957 522.604 255.007 524.381 253.574C526.187 252.141 528.509 251.424 531.347 251.424C533.956 251.424 536.178 251.883 538.012 252.8ZM552.653 276.708H564.521V280.621H548.224V251.639H552.653V276.708ZM571.163 266.001C571.163 261.5 572.367 257.888 574.775 255.165C577.183 252.442 580.408 251.08 584.45 251.08C588.578 251.08 591.832 252.442 594.211 255.165C596.591 257.86 597.78 261.472 597.78 266.001C597.78 270.53 596.576 274.157 594.168 276.88C591.789 279.603 588.564 280.965 584.493 280.965C580.451 280.965 577.212 279.603 574.775 276.88C572.367 274.157 571.163 270.53 571.163 266.001ZM578.086 258.132C576.567 260.053 575.807 262.676 575.807 266.001C575.807 269.326 576.596 271.964 578.172 273.913C579.749 275.862 581.856 276.837 584.493 276.837C587.217 276.837 589.338 275.877 590.857 273.956C592.377 272.035 593.136 269.384 593.136 266.001C593.136 262.647 592.362 260.01 590.814 258.089C589.295 256.168 587.174 255.208 584.45 255.208C581.756 255.208 579.634 256.183 578.086 258.132ZM618.59 259.551V263.378C617.185 262.547 615.379 262.131 613.172 262.131C612.168 262.131 611.366 262.36 610.764 262.819C610.19 263.278 609.904 263.88 609.904 264.625C609.904 264.826 609.918 265.026 609.947 265.227C610.004 265.399 610.09 265.585 610.205 265.786C610.319 265.958 610.42 266.116 610.506 266.259C610.62 266.374 610.792 266.503 611.022 266.646C611.251 266.789 611.423 266.918 611.538 267.033C611.681 267.119 611.896 267.234 612.183 267.377C612.498 267.52 612.727 267.635 612.871 267.721C613.014 267.778 613.258 267.893 613.602 268.065C613.974 268.208 614.232 268.309 614.376 268.366C616.067 269.111 617.386 269.957 618.332 270.903C619.306 271.82 619.794 273.053 619.794 274.601C619.794 276.55 619.106 278.084 617.73 279.202C616.354 280.291 614.49 280.836 612.14 280.836C609.56 280.836 607.41 280.406 605.69 279.546V275.547C607.696 276.78 609.775 277.396 611.925 277.396C613.043 277.396 613.903 277.167 614.505 276.708C615.135 276.249 615.451 275.647 615.451 274.902C615.451 274.271 615.207 273.712 614.72 273.225C614.232 272.709 613.731 272.336 613.215 272.107C612.727 271.849 611.882 271.462 610.678 270.946C607.266 269.541 605.561 267.477 605.561 264.754C605.561 262.833 606.277 261.328 607.711 260.239C609.144 259.15 610.936 258.605 613.086 258.605C615.436 258.605 617.271 258.92 618.59 259.551Z" fill="white"/>
<path d="M162.559 100.875L172.866 96.6641L173.993 116.11L168.358 114.695L163.524 119.675L162.559 100.875Z" fill="#3BB907" stroke="#3BB907" stroke-width="1.14962" stroke-linecap="round" stroke-linejoin="round"/>
<path d="M128.428 110.855C128.428 110.855 131.039 111.591 131.811 111.588C132.701 111.584 135.032 110.897 135.032 110.897V193.203C135.032 193.203 133.022 193.261 131.733 193.254C130.441 193.246 128.428 193.165 128.428 193.165V110.855Z" fill="#3B3B3B"/>
<path d="M129.713 112.082C129.713 112.082 131.308 112.796 131.78 112.793C132.323 112.789 133.747 112.122 133.747 112.122V191.979C133.747 191.979 132.519 192.036 131.732 192.029C130.943 192.022 129.713 191.942 129.713 191.942V112.082Z" fill="#3BB907"/>
</svg>
