<svg xmlns="http://www.w3.org/2000/svg" viewBox="0 0 187.44 188.44"><defs><style>.cls-1{fill:#3b3b3b;}.cls-2{fill:#f98a30;stroke:#f98a30;}.cls-3{fill:none;stroke:#f7f7f7;stroke-width:7px;}.cls-4,.cls-5{fill:#3bb907;}.cls-4{stroke:#3bb907;stroke-linecap:round;stroke-linejoin:round;stroke-width:1.15px;}</style></defs><g id="Layer_2" data-name="Layer 2"><g id="Layer_1-2" data-name="Layer 1"><rect class="cls-1" width="187.44" height="188.44"/><path class="cls-2" d="M118.64,59.06a1.48,1.48,0,0,0,.9-1.38c-.09-7.11-1.67-14.63-5.7-20.39s-10.54-9.74-20.33-9.74c-9.16,0-15.7,4-20,9.73s-6.23,13.26-6.34,20.39a1.49,1.49,0,0,0,.9,1.39L92.92,69.64a1.43,1.43,0,0,0,1.18,0ZM92.08,80,38.63,57.22a3.5,3.5,0,0,0-4.87,3.22v72a3.49,3.49,0,0,0,2.09,3.2L82,156.07a27.69,27.69,0,0,0,9.83,2.31c.69,0,1.37,0,2.06,0a27.63,27.63,0,0,0,10.18-2.27l47.05-20.45a3.51,3.51,0,0,0,2.11-3.21V60.41a3.5,3.5,0,0,0-4.86-3.23L137.14,61.9a.72.72,0,0,0-.43.68L137.65,86l-6.71-1.76a.71.71,0,0,0-.69.19L123.12,92l-1.34-22.65a.7.7,0,0,0-1-.6L94,80A2.49,2.49,0,0,1,92.08,80Z"/><rect class="cls-3" x="7.59" y="7.94" width="172.27" height="172.56"/><path class="cls-4" d="M123.84,67.76l10.3-4.21L135.27,83l-5.63-1.41-4.84,5Z"/><path class="cls-5" d="M91,79a10.16,10.16,0,0,0,2.07.72A8.42,8.42,0,0,0,95,79v79.86s-1.23.06-2,0-2-.09-2-.09Z"/></g></g></svg>